<svg width="140" height="176" viewBox="0 0 140 176" fill="none" xmlns="http://www.w3.org/2000/svg">
<path d="M31.7338 122.912L32.6225 130.493C32.6225 132.754 34.4789 134.585 36.7681 134.585H101.702C103.992 134.585 105.848 132.751 105.848 130.493L106.818 122.912H31.7338Z" fill="black"/>
<path d="M101.784 159.466L101.568 149.871L96.0443 157.714C94.9697 159.247 93.9282 160.016 92.9478 160.016C90.8011 160.016 88.0663 156.937 86.9 155.623C86.6148 155.3 86.3652 155.023 86.1692 154.819C85.8814 154.516 85.5555 154.108 85.2117 153.675C83.582 151.61 81.1221 148.504 75.7084 148.504C72.6068 148.504 70.0833 149.599 68.288 150.862C66.4902 149.599 63.9667 148.504 60.8677 148.504C55.4539 148.504 52.989 151.613 51.3593 153.675C51.018 154.108 50.6946 154.516 50.4043 154.819C50.2057 155.023 49.9587 155.3 49.6735 155.623C48.5072 156.937 45.7698 160.016 43.6232 160.016C42.6428 160.016 41.6064 159.245 40.5292 157.714L35.006 149.871L34.7921 159.466C34.7844 159.774 34.6775 167.052 39.3808 171.86C42.0291 174.564 45.5635 175.939 49.8874 175.939C58.5937 175.939 64.8274 172.068 68.2906 167.913C71.7461 172.071 77.9849 175.939 86.6912 175.939C91.015 175.939 94.5521 174.566 97.1978 171.86C101.899 167.052 101.789 159.774 101.784 159.466Z" fill="black"/>
<path d="M111.376 18.5178C108.565 18.5178 105.848 18.9354 103.276 19.6942C96.4314 7.92199 83.6966 0 69.0953 0C54.6544 0 42.0291 7.74629 35.1333 19.3097C32.9943 18.7979 30.7636 18.5152 28.4667 18.5152C12.745 18.5152 0 31.2602 0 46.9819C0 62.0238 11.6678 74.3333 26.4448 75.3672L31.6854 120.006H106.872L112.578 75.4155C127.742 74.784 139.846 62.2988 139.846 46.9794C139.846 31.2653 127.103 18.5178 111.376 18.5178ZM112.235 67.137L105.247 67.4273L104.356 74.3715L99.5762 111.718H90.9794L92.8409 86.5893C92.9173 85.5377 92.1304 84.6209 91.0787 84.542C90.0016 84.4809 89.1129 85.255 89.0314 86.3041L87.1496 111.715H71.5016V85.7032C71.5016 84.649 70.646 83.7934 69.5918 83.7934C68.5376 83.7934 67.682 84.649 67.682 85.7032V111.718H52.0315L50.1497 86.3194C50.0708 85.2677 49.1515 84.4783 48.1049 84.5547C47.0532 84.6337 46.2638 85.5504 46.3402 86.6021L48.1991 111.718H39.0574L34.675 74.4097L33.8754 67.5852L27.0229 67.1039C16.5162 66.3655 8.28868 57.5318 8.28868 46.9896C8.28868 35.8641 17.3413 26.8141 28.4642 26.8141C30.0455 26.8141 31.637 27.0051 33.1955 27.3768L39.1261 28.8028L42.2506 23.5623C47.9521 14.0029 57.9851 8.29632 69.0927 8.29632C80.1723 8.29632 90.5262 14.2626 96.1054 23.8653L99.3801 29.5006L105.629 27.6468C107.498 27.0942 109.431 26.8115 111.371 26.8115C122.497 26.8115 131.549 35.8616 131.549 46.987C131.554 57.8349 123.067 66.6863 112.235 67.137Z" fill="black"/>
</svg>
