<svg width="350" height="262" viewBox="0 0 350 262" fill="none" xmlns="http://www.w3.org/2000/svg">
<g clip-path="url(#clip0_220_2)">
<path d="M136.618 122.912L137.507 130.493C137.507 132.754 139.363 134.585 141.652 134.585H206.587C208.876 134.585 210.732 132.751 210.732 130.493L211.703 122.912H136.618Z" fill="black"/>
<path d="M206.668 159.466L206.452 149.871L200.929 157.714C199.854 159.247 198.812 160.016 197.832 160.016C195.685 160.016 192.951 156.937 191.784 155.623C191.499 155.3 191.25 155.023 191.053 154.819C190.766 154.516 190.44 154.108 190.096 153.675C188.466 151.61 186.006 148.504 180.593 148.504C177.491 148.504 174.968 149.599 173.172 150.862C171.375 149.599 168.851 148.504 165.752 148.504C160.338 148.504 157.873 151.613 156.244 153.675C155.902 154.108 155.579 154.516 155.289 154.819C155.09 155.023 154.843 155.3 154.558 155.623C153.392 156.937 150.654 160.016 148.507 160.016C147.527 160.016 146.491 159.245 145.414 157.714L139.89 149.871L139.676 159.466C139.669 159.774 139.562 167.052 144.265 171.86C146.913 174.564 150.448 175.939 154.772 175.939C163.478 175.939 169.712 172.068 173.175 167.913C176.63 172.071 182.869 175.939 191.575 175.939C195.899 175.939 199.436 174.566 202.082 171.86C206.783 167.052 206.673 159.774 206.668 159.466Z" fill="black"/>
<path d="M216.261 18.5178C213.449 18.5178 210.732 18.9354 208.16 19.6942C201.316 7.92199 188.581 0 173.98 0C159.539 0 146.913 7.74629 140.018 19.3097C137.879 18.7979 135.648 18.5152 133.351 18.5152C117.629 18.5152 104.884 31.2602 104.884 46.9819C104.884 62.0238 116.552 74.3333 131.329 75.3672L136.57 120.006H211.756L217.463 75.4155C232.627 74.784 244.73 62.2988 244.73 46.9794C244.73 31.2653 231.988 18.5178 216.261 18.5178ZM217.119 67.137L210.131 67.4273L209.24 74.3715L204.461 111.718H195.864L197.725 86.5893C197.802 85.5377 197.015 84.6209 195.963 84.542C194.886 84.4809 193.997 85.255 193.916 86.3041L192.034 111.715H176.386V85.7032C176.386 84.649 175.53 83.7934 174.476 83.7934C173.422 83.7934 172.566 84.649 172.566 85.7032V111.718H156.916L155.034 86.3194C154.955 85.2677 154.036 84.4783 152.989 84.5547C151.938 84.6337 151.148 85.5504 151.225 86.6021L153.083 111.718H143.942L139.559 74.4097L138.76 67.5852L131.907 67.1039C121.401 66.3655 113.173 57.5318 113.173 46.9896C113.173 35.8641 122.226 26.8141 133.348 26.8141C134.93 26.8141 136.521 27.0051 138.08 27.3768L144.01 28.8028L147.135 23.5623C152.836 14.0029 162.869 8.29632 173.977 8.29632C185.057 8.29632 195.41 14.2626 200.99 23.8653L204.264 29.5006L210.513 27.6468C212.383 27.0942 214.315 26.8115 216.256 26.8115C227.381 26.8115 236.434 35.8616 236.434 46.987C236.439 57.8349 227.951 66.6863 217.119 67.137Z" fill="black"/>
<path d="M29.1322 219.671C32.9728 214.987 35.2209 208.992 38.4058 201.217C39.9045 197.564 42.1527 196.065 45.8996 196.065C53.1124 196.065 53.3934 201.592 54.8922 210.584C56.6719 221.169 58.2644 239.529 58.2644 250.208C58.2644 256.765 57.796 261.074 52.4567 261.074C47.211 261.074 46.4616 257.514 46.4616 253.112V238.311C46.4616 230.162 45.5249 221.731 44.2135 213.113H44.0261C42.5274 217.891 35.6893 233.534 29.1322 233.534C22.5751 233.534 15.737 217.891 14.2382 213.113H14.0509C12.7395 221.731 11.8027 230.162 11.8027 238.311V253.112C11.8027 257.514 11.0534 261.074 5.8077 261.074C0.468363 261.074 0 256.765 0 250.208C0 239.529 1.59243 221.169 3.37221 210.584C4.87098 201.592 5.15199 196.065 12.3648 196.065C16.1117 196.065 18.3598 197.564 19.8586 201.217C23.0435 208.992 25.2916 214.987 29.1322 219.671ZM83.467 207.025V215.081H105.948C109.133 215.081 111.662 216.767 111.662 220.42C111.662 224.073 109.133 225.759 105.948 225.759H83.467V250.114H106.885C110.07 250.114 112.599 251.8 112.599 255.453C112.599 259.107 110.07 260.793 106.885 260.793H79.2517C73.0693 260.793 71.1022 257.608 71.1022 252.737V202.716C71.1022 199.156 73.0693 196.346 76.2542 196.346H106.885C110.07 196.346 112.599 198.032 112.599 201.685C112.599 205.339 110.07 207.025 106.885 207.025H83.467ZM169.65 202.528V254.61C169.65 258.264 167.777 261.074 163.749 261.074C159.721 261.074 157.848 258.264 157.848 254.61V224.916C150.167 224.073 142.298 218.734 136.116 211.521V254.61C136.116 258.264 134.242 261.074 130.214 261.074C126.186 261.074 124.313 258.264 124.313 254.61V202.528C124.5 198.875 126.748 196.065 131.9 196.065C141.08 196.065 142.111 209.835 157.848 214.238V202.528C157.848 198.875 159.721 196.065 163.749 196.065C167.777 196.065 169.65 198.875 169.65 202.528ZM182.395 231.661L185.111 202.622C185.392 199.437 186.891 196.065 190.731 196.065C194.853 196.065 196.352 199.25 196.352 201.498C196.352 213.863 193.448 226.04 193.448 238.405C193.448 245.711 198.694 250.676 205.906 250.676C213.119 250.676 218.365 245.711 218.365 238.405C218.365 226.04 215.461 213.863 215.461 201.498C215.461 199.25 216.96 196.065 221.081 196.065C224.922 196.065 226.421 199.437 226.702 202.622L229.418 231.661C229.606 234.096 229.606 236.906 229.606 239.529C229.606 252.55 219.302 261.355 205.906 261.355C192.511 261.355 182.207 252.55 182.207 239.529C182.207 236.906 182.207 234.096 182.395 231.661ZM287.786 233.44H285.35C282.821 240.278 281.416 249.271 280.76 255.547C280.386 259.013 278.418 261.074 275.046 261.074C269.988 261.074 268.957 258.076 268.957 253.58C268.957 250.676 270.55 233.815 282.821 210.678C288.16 200.561 291.158 195.784 297.715 195.784C303.148 195.784 306.333 200.561 311.672 210.678C323.943 233.815 326.472 250.676 326.472 253.58C326.472 258.451 324.131 261.074 320.852 261.074C316.168 261.074 315.044 258.357 314.108 253.299C311.672 239.81 298.277 233.44 287.786 233.44ZM288.16 224.073H289.378C293.968 224.073 302.024 225.385 308.206 230.443L308.394 230.256C305.583 222.2 302.024 214.331 297.434 207.025C293.687 212.645 290.596 218.265 288.16 224.073ZM349.614 202.435V254.704C349.614 258.264 347.741 261.074 343.713 261.074C339.685 261.074 337.812 258.264 337.812 254.704V202.435C337.812 198.875 339.685 196.065 343.713 196.065C347.741 196.065 349.614 198.875 349.614 202.435Z" fill="black"/>
</g>
<defs>
<clipPath id="clip0_220_2">
<rect width="349.614" height="261.355" fill="white"/>
</clipPath>
</defs>
</svg>
